<svg xmlns="http://www.w3.org/2000/svg" width="15.833" height="15.833" viewBox="0 0 15.833 15.833">
  <g id="グループ_14" data-name="グループ 14" transform="translate(-1.583 -1.583)">
    <path id="パス_61" data-name="パス 61" d="M16.25,2H6.75A1.588,1.588,0,0,0,5.167,3.583v9.5A1.588,1.588,0,0,0,6.75,14.667h9.5a1.588,1.588,0,0,0,1.583-1.583v-9.5A1.588,1.588,0,0,0,16.25,2Zm0,11.083H6.75v-9.5h9.5ZM3.583,5.167H2V16.25a1.588,1.588,0,0,0,1.583,1.583H14.667V16.25H3.583Zm9.5,4.75V7.542a.794.794,0,0,0-.792-.792H10.708v3.958h1.583A.794.794,0,0,0,13.083,9.917ZM11.5,7.542h.792V9.917H11.5Zm3.167,1.583h.792V8.333h-.792V7.542h.792V6.75H13.875v3.958h.792Zm-6.333,0h.792a.794.794,0,0,0,.792-.792V7.542a.794.794,0,0,0-.792-.792H7.542v3.958h.792Zm0-1.583h.792v.792H8.333Z" transform="translate(-0.417 -0.417)" fill="#be3e3e"/>
  </g>
</svg>
